<svg xmlns="http://www.w3.org/2000/svg" viewBox="0 0 400 280" fill="none">
  <rect width="400" height="280" rx="28" fill="#070B16" />
  <g opacity="0.5" filter="url(#glow)">
    <ellipse cx="200" cy="140" rx="170" ry="110" fill="#1E3A8A" />
  </g>
  <g opacity="0.45" filter="url(#glow2)">
    <ellipse cx="200" cy="140" rx="120" ry="60" fill="#8B5CF6" />
  </g>
  <path
    d="M86 154c60-18 83-52 114-52 32 0 55 35 114 52"
    stroke="#F8FAFC"
    stroke-opacity="0.4"
    stroke-width="3"
    stroke-linecap="round"
  />
  <path
    d="M86 126c60 18 83 52 114 52 32 0 55-35 114-52"
    stroke="#F8FAFC"
    stroke-opacity="0.25"
    stroke-width="3"
    stroke-linecap="round"
  />
  <circle cx="156" cy="140" r="28" fill="#FACC15" fill-opacity="0.85" />
  <circle cx="244" cy="140" r="18" fill="#F8FAFC" fill-opacity="0.7" />
  <circle cx="308" cy="90" r="8" fill="#F8FAFC" fill-opacity="0.6" />
  <circle cx="100" cy="86" r="6" fill="#F8FAFC" fill-opacity="0.6" />
  <text
    x="36"
    y="236"
    font-family="Inter, Arial, sans-serif"
    font-size="20"
    fill="#E0E7FF"
    opacity="0.8"
  >
    Lente gravitacional
  </text>
  <defs>
    <filter id="glow" x="-20" y="0" width="440" height="280" color-interpolation-filters="sRGB" filterUnits="userSpaceOnUse">
      <feGaussianBlur stdDeviation="36" />
    </filter>
    <filter id="glow2" x="40" y="30" width="320" height="220" color-interpolation-filters="sRGB" filterUnits="userSpaceOnUse">
      <feGaussianBlur stdDeviation="28" />
    </filter>
  </defs>
</svg>
