<?xml version="1.0" encoding="UTF-8"?>
<svg version="1.1" xmlns="http://www.w3.org/2000/svg" width="600" height="477">
<path d="M0 0 C41.23946566 -0.34325802 82.27286404 8.28101688 119.49536133 26.04003906 C120.17405273 26.36085449 120.85274414 26.68166992 121.55200195 27.01220703 C137.44965429 34.57319192 152.44531965 43.42811577 166.49536133 54.04003906 C167.07382812 54.47429199 167.65229492 54.90854492 168.24829102 55.35595703 C177.15417795 62.07835432 185.47554074 69.28592208 193.49536133 77.04003906 C194.14859375 77.67135742 194.80182617 78.30267578 195.47485352 78.953125 C203.67186094 86.91868751 211.58080898 94.91376122 218.49536133 104.04003906 C219.2480127 105.01070312 219.2480127 105.01070312 220.01586914 106.00097656 C254.7309011 150.85725109 278.19180288 208.44271069 277.55786133 265.79003906 C277.55334961 266.59441406 277.54883789 267.39878906 277.54418945 268.22753906 C277.53265651 270.1650731 277.51473604 272.10256757 277.49536133 274.04003906 C274.85536133 274.04003906 272.21536133 274.04003906 269.49536133 274.04003906 C269.3805542 273.26740723 269.26574707 272.49477539 269.14746094 271.69873047 C258.40803088 200.63067008 226.34326368 132.88656365 168.49536133 88.04003906 C167.05870117 86.87794922 167.05870117 86.87794922 165.59301758 85.69238281 C157.03177389 78.88009433 147.95039524 73.04966963 138.62231445 67.34423828 C136.86816302 66.26863257 135.12545744 65.17438372 133.38598633 64.07519531 C78.02260983 30.07312159 6.08693843 22.05467256 -56.46606445 36.43188477 C-76.20556541 41.26188577 -95.29444114 48.02105903 -113.50463867 57.04003906 C-114.25422852 57.41128906 -115.00381836 57.78253906 -115.77612305 58.16503906 C-137.17420279 68.89201376 -157.14326641 82.54078974 -174.50463867 99.04003906 C-175.89403877 100.25576415 -177.28945458 101.46466517 -178.69213867 102.66503906 C-185.513172 108.60908239 -191.70307711 115.105097 -197.50463867 122.04003906 C-197.91665527 122.52762695 -198.32867187 123.01521484 -198.75317383 123.51757812 C-231.75634413 162.79076038 -252.65730914 209.97090403 -261.0612793 260.42431641 C-261.83188988 264.97074914 -262.67032237 269.50493405 -263.50463867 274.04003906 C-266.14463867 274.04003906 -268.78463867 274.04003906 -271.50463867 274.04003906 C-273.29910355 230.04241879 -260.12229687 184.58566575 -239.50463867 146.04003906 C-238.98716064 145.06309082 -238.98716064 145.06309082 -238.45922852 144.06640625 C-230.26406013 128.6953131 -220.31744861 114.66904709 -209.50463867 101.04003906 C-209.0834375 100.50378906 -208.66223633 99.96753906 -208.22827148 99.41503906 C-202.7689337 92.4751322 -202.7689337 92.4751322 -200.50463867 90.04003906 C-199.84463867 90.04003906 -199.18463867 90.04003906 -198.50463867 90.04003906 C-198.09846313 89.1470813 -198.09846313 89.1470813 -197.68408203 88.23608398 C-196.51858354 86.06600347 -195.36270901 84.64019282 -193.63354492 82.90332031 C-193.06482666 82.33057373 -192.4961084 81.75782715 -191.91015625 81.16772461 C-191.30196045 80.56871338 -190.69376465 79.96970215 -190.06713867 79.35253906 C-189.4389624 78.72968018 -188.81078613 78.10682129 -188.16357422 77.46508789 C-183.68150333 73.07285173 -179.04201999 68.98047586 -174.11010742 65.09472656 C-172.41771444 63.76009582 -170.75134284 62.39153889 -169.11791992 60.98535156 C-154.76038826 48.67889586 -138.28086446 38.68110627 -121.50463867 30.04003906 C-120.77132324 29.66041016 -120.03800781 29.28078125 -119.2824707 28.88964844 C-82.4712973 10.07130854 -41.24706556 0.65937409 0 0 Z " fill="#FFFFFF" transform="translate(295.504638671875,50.9599609375)"/>
<path d="M0 0 C0.82732635 0.00054382 1.65465271 0.00108765 2.50704956 0.00164795 C58.2753999 0.16918688 108.00071045 23.27470989 147.13964844 62.45410156 C154.03078764 69.55373637 159.98265802 77.3049763 165.6875 85.375 C166.10193359 85.96071777 166.51636719 86.54643555 166.94335938 87.14990234 C172.12229249 94.58648595 176.44816377 102.44128676 180.6875 110.4375 C181.40993896 111.79536621 181.40993896 111.79536621 182.14697266 113.18066406 C182.59347168 114.04014648 183.0399707 114.89962891 183.5 115.78515625 C183.89832031 116.54965088 184.29664063 117.31414551 184.70703125 118.10180664 C185.74862652 120.51672037 186.26249508 122.78584033 186.6875 125.375 C183.75252416 125.67957296 181.5438279 125.90402507 178.6875 125.375 C176.70173527 123.21782561 175.63486872 121.70885145 174.3125 119.1875 C173.55576424 117.89030941 172.79390265 116.59609754 172.02734375 115.3046875 C171.64304199 114.6456543 171.25874023 113.98662109 170.86279297 113.30761719 C164.57480418 102.96783338 156.00887019 94.0756919 147.6875 85.375 C147.05070312 84.69695312 146.41390625 84.01890625 145.7578125 83.3203125 C110.16112347 46.36107078 57.90121073 28.01891828 7.6875 25.375 C6.53894531 25.31441406 5.39039063 25.25382812 4.20703125 25.19140625 C-48.3119395 24.01198419 -100.66911546 43.89997427 -139.171875 79.421875 C-140.90591258 81.00402608 -142.65949382 82.48446881 -144.5 83.9375 C-148.17124127 87.11924244 -151.17970732 90.67206306 -154.3125 94.375 C-155.56933594 95.80005859 -155.56933594 95.80005859 -156.8515625 97.25390625 C-163.78107764 105.16734826 -169.64465635 113.52384691 -175.3125 122.375 C-175.9725 123.365 -176.6325 124.355 -177.3125 125.375 C-179.2578125 125.66796875 -179.2578125 125.66796875 -181.4375 125.5625 C-182.71625 125.500625 -183.995 125.43875 -185.3125 125.375 C-175.51893924 93.54592753 -150.08705244 63.55399153 -124.3125 43.375 C-123.35214844 42.62089844 -122.39179688 41.86679688 -121.40234375 41.08984375 C-114.33471977 35.6610891 -107.04078838 30.80843792 -99.3125 26.375 C-98.64428223 25.98699219 -97.97606445 25.59898438 -97.28759766 25.19921875 C-67.5084618 8.10115032 -34.21069223 -0.08520077 0 0 Z " fill="#FFFFFF" transform="translate(300.3125,90.625)"/>
<path d="M0 0 C5.61 0 11.22 0 17 0 C22.09333349 12.53003542 26.95805584 25.11821533 31.559021 37.8371582 C33.16988665 42.28869354 34.79237157 46.73599303 36.4140625 51.18359375 C36.72707306 52.04262299 37.04008362 52.90165222 37.36257935 53.78671265 C39.82581342 60.54015093 42.3219142 67.27991345 44.875 74 C45.34776367 75.2518811 45.34776367 75.2518811 45.83007812 76.52905273 C46.97192912 80.02739666 46.97192912 80.02739666 49 83 C49.19885803 82.45718384 49.39771606 81.91436768 49.6026001 81.35510254 C66.59661412 34.9731164 66.59661412 34.9731164 74.0625 15.0625 C74.31334351 14.39250977 74.56418701 13.72251953 74.82263184 13.03222656 C78.82292184 2.35415633 78.82292184 2.35415633 80 0 C85.61 0 91.22 0 97 0 C97 34.98 97 69.96 97 106 C93.04 106 89.08 106 85 106 C83.09365564 104.09365564 83.81610484 100.59922481 83.79467773 98.00170898 C83.78477814 97.27004517 83.77487854 96.53838135 83.76467896 95.7845459 C83.73297617 93.35509528 83.70827207 90.92562507 83.68359375 88.49609375 C83.66303178 86.81599913 83.64203552 85.13590977 83.62062073 83.45582581 C83.56532174 79.02532197 83.51594713 74.59477085 83.46777344 70.16418457 C83.4176154 65.64652275 83.36189967 61.12892992 83.30664062 56.61132812 C83.1989634 47.7409443 83.09753982 38.87050068 83 30 C82.67292809 30.87845581 82.67292809 30.87845581 82.33924866 31.7746582 C80.01873694 38.00696066 77.69782641 44.23911451 75.37670898 50.47119141 C74.51658569 52.7807255 73.65655596 55.09029445 72.79663086 57.39990234 C70.2886897 64.13568347 67.77810847 70.87047242 65.26544189 77.60449219 C63.97345662 81.07122275 62.68556102 84.53945546 61.39794922 88.0078125 C60.57660335 90.21358112 59.75515573 92.41931186 58.93359375 94.625 C58.55163345 95.65689453 58.16967316 96.68878906 57.77613831 97.75195312 C57.425186 98.69232422 57.0742337 99.63269531 56.71264648 100.6015625 C56.40487778 101.42994629 56.09710907 102.25833008 55.78001404 103.11181641 C55 105 55 105 54 106 C50.33344805 106.14300125 46.66855781 106.04216733 43 106 C39.54523912 97.87396192 36.32618848 89.68857161 33.27734375 81.40234375 C32.84998428 80.2468251 32.42262482 79.09130646 31.98231506 77.90077209 C30.63173053 74.24719756 29.28458902 70.59236458 27.9375 66.9375 C27.03081935 64.48364251 26.12392008 62.02986579 25.21679688 59.57617188 C21.45413542 49.39265397 17.70090408 39.20615163 14 29 C13.9845388 30.42486977 13.9845388 30.42486977 13.96876526 31.87852478 C13.87119905 40.81097864 13.76848134 49.74336022 13.66066074 58.67569637 C13.60539035 63.26839178 13.55196391 67.8610935 13.50268555 72.45385742 C13.45510253 76.88239331 13.40276219 81.31084929 13.34705925 85.73929024 C13.32660813 87.43263331 13.3078997 89.12599831 13.29092598 90.81937981 C13.26694272 93.18297163 13.23688034 95.54641104 13.20532227 97.90991211 C13.1995668 98.61697296 13.19381134 99.32403381 13.18788147 100.05252075 C13.11405216 104.88594784 13.11405216 104.88594784 12 106 C8.04 106 4.08 106 0 106 C0 71.02 0 36.04 0 0 Z " fill="#FFFFFF" transform="translate(94,365)"/>
<path d="M0 0 C3.125 2.25 3.125 2.25 5 4 C5 4.66 5 5.32 5 6 C6.485 6.495 6.485 6.495 8 7 C20.14064158 20.72295269 21.74596516 35.83703895 21.17919922 53.28271484 C20.82370873 58.67319057 19.41963424 63.20581786 17 68 C16.56429687 68.86367188 16.12859375 69.72734375 15.6796875 70.6171875 C8.34246577 83.80814898 -2.51014889 93.48043829 -17 98 C-31.1719745 101.98729186 -45.44263337 100.50538093 -58.625 94 C-71.42369074 86.62684121 -80.77275992 75.32391645 -84.90039062 61.1171875 C-89.1501868 44.85978539 -87.37748583 29.64945239 -78.9453125 15.0078125 C-71.18026081 3.00160807 -59.31426698 -6.23307225 -45.28369141 -9.58764648 C-28.76560385 -12.57022612 -13.78655013 -9.37586224 0 0 Z M-62.3125 16.1875 C-71.54894583 27.21888267 -72.89433147 39.17429787 -72 53 C-70.35212692 63.80893022 -63.50671288 73.3255022 -55 80 C-44.5576237 85.83672351 -33.5913783 88.01230098 -21.78125 85.24609375 C-10.25106366 81.2073609 -1.1415163 73.43595013 4.26953125 62.4140625 C8.27402628 52.08444635 8.99875977 38.85057002 5.1640625 28.33203125 C-0.51820731 16.94842361 -8.78217085 9.18317108 -20.640625 4.7265625 C-35.97073162 0.00570185 -51.30766387 4.64584259 -62.3125 16.1875 Z " fill="#FFFFFF" transform="translate(483,254)"/>
<path d="M0 0 C4.95 0 9.9 0 15 0 C18.56378792 3.72217849 20.25809519 6.0647797 22.5 10.5 C23.74586848 12.71570326 24.99330917 14.93052309 26.2421875 17.14453125 C26.86061523 18.28486816 27.47904297 19.42520508 28.11621094 20.60009766 C31.07079938 25.93260137 34.35247153 31.04639947 37.625 36.1875 C38.87057333 38.17577947 40.11407971 40.16535537 41.35546875 42.15625 C41.96052246 43.125625 42.56557617 44.095 43.18896484 45.09375 C49.55716871 55.31309468 55.88382368 65.55822325 62.19360352 75.8137207 C62.56119026 76.41111305 62.92877701 77.0085054 63.30750275 77.62400055 C64.20503094 79.08264912 65.10251956 80.54132204 66 82 C65.99777939 80.98744644 65.99555878 79.97489288 65.99327087 78.93165588 C65.97303946 69.4106235 65.95802786 59.88959545 65.94818783 50.36854649 C65.942959 45.47314626 65.93586136 40.57776332 65.92456055 35.68237305 C65.91373166 30.96212022 65.90772316 26.24188408 65.90512276 21.5216198 C65.90326851 19.71661046 65.89964791 17.91160208 65.89426994 16.10659981 C65.88705948 13.58740356 65.88600906 11.0682771 65.88647461 8.54907227 C65.88287933 7.79525772 65.87928406 7.04144318 65.87557983 6.26478577 C65.88594784 1.11405216 65.88594784 1.11405216 67 0 C71.29 0 75.58 0 80 0 C80 34.98 80 69.96 80 106 C65 106 65 106 61.03515625 102.1015625 C59.98854046 100.30741211 59.00046352 98.47826864 58.0625 96.625 C56.90691708 94.59337042 55.75063848 92.56213643 54.59375 90.53125 C54.00980469 89.46003906 53.42585938 88.38882813 52.82421875 87.28515625 C49.76627653 81.77824103 46.39484364 76.4685735 43.0625 71.125 C41.71977515 68.93977153 40.37863309 66.75356973 39.0390625 64.56640625 C35.03519185 58.04628824 30.99387784 51.55005698 26.9375 45.0625 C26.34267822 44.11068848 25.74785645 43.15887695 25.13500977 42.17822266 C21.12078884 35.76519788 17.0621073 29.38331146 13 23 C13 50.39 13 77.78 13 106 C8.71 106 4.42 106 0 106 C0 71.02 0 36.04 0 0 Z M67 83 C68 85 68 85 68 85 Z " fill="#FFFFFF" transform="translate(302,365)"/>
<path d="M0 0 C5.6558958 -0.07469184 11.31149838 -0.1288562 16.96777344 -0.16479492 C18.88807178 -0.17979221 20.80833639 -0.20019682 22.72851562 -0.22631836 C25.50399142 -0.26310351 28.27901064 -0.27981721 31.0546875 -0.29296875 C31.8998996 -0.30845261 32.74511169 -0.32393646 33.61593628 -0.33988953 C44.08675221 -0.34278262 52.50319657 2.61809011 60 10 C66.07436764 17.02929007 69.83784424 26.36084663 69.3359375 35.78125 C67.77260174 46.10653736 64.34177138 54.40093852 56 61 C52.72533231 62.79696601 49.38772125 64.42797919 46 66 C46.4125 66.65895264 46.825 67.31790527 47.25 67.99682617 C50.54611965 73.26335217 53.83836032 78.5322395 57.125 83.8046875 C59.33333046 87.34463696 61.5524531 90.87566765 63.8125 94.3828125 C64.19277344 94.97940674 64.57304687 95.57600098 64.96484375 96.19067383 C65.92838691 97.70030053 66.90132452 99.20391973 67.875 100.70703125 C69 103 69 103 68 106 C65.81952384 106.27218149 63.62906773 106.46503155 61.4375 106.625 C60.21933594 106.74101562 59.00117188 106.85703125 57.74609375 106.9765625 C51.82058981 105.43185344 49.99460098 101.08042948 47 96 C46.48058838 95.14889648 45.96117676 94.29779297 45.42602539 93.42089844 C43.85787895 90.81807032 42.33150881 88.19427384 40.8125 85.5625 C35.93228534 77.18657962 30.88491516 68.94601794 25.60668945 60.81469727 C25.13191162 60.07662842 24.65713379 59.33855957 24.16796875 58.578125 C23.74797607 57.93262695 23.3279834 57.28712891 22.89526367 56.62207031 C22 55 22 55 22 53 C23.34191406 52.94392578 23.34191406 52.94392578 24.7109375 52.88671875 C37.68344098 52.31108301 37.68344098 52.31108301 49 46.625 C53.27549624 41.01341119 53.69161605 35.90535398 53 29 C51.19326928 23.19944349 48.43027234 19.17377983 43.24707031 15.88916016 C40.26918378 14.71081783 37.68327214 14.67318015 34.484375 14.5859375 C33.23398437 14.54726563 31.98359375 14.50859375 30.6953125 14.46875 C29.39335937 14.4378125 28.09140625 14.406875 26.75 14.375 C25.43257813 14.33632813 24.11515625 14.29765625 22.7578125 14.2578125 C19.50534839 14.16353818 16.25289004 14.0779325 13 14 C13.00222061 15.13783432 13.00444122 16.27566864 13.00672913 17.44798279 C13.02695933 28.14630749 13.04197155 38.84462834 13.05181217 49.5429678 C13.05704131 55.04370862 13.06413951 60.54443405 13.07543945 66.04516602 C13.08626725 71.3489656 13.0922766 76.65275035 13.09487724 81.95656013 C13.09673169 83.98485612 13.10035267 86.01315126 13.10573006 88.04144096 C13.11293906 90.87196514 13.113991 93.70242718 13.11352539 96.53295898 C13.11712067 97.38028091 13.12071594 98.22760284 13.12442017 99.1006012 C13.11405216 104.88594784 13.11405216 104.88594784 12 106 C10.16884117 106.09851171 8.33380067 106.12972629 6.5 106.125 C5.4996875 106.12757813 4.499375 106.13015625 3.46875 106.1328125 C1 106 1 106 0 105 C-0.09535213 103.63391674 -0.1218867 102.26294545 -0.12025452 100.89353943 C-0.12162918 100.00867859 -0.12300385 99.12381775 -0.12442017 98.21214294 C-0.12082489 97.23391068 -0.11722961 96.25567841 -0.11352539 95.24780273 C-0.11367142 94.2235318 -0.11381744 93.19926086 -0.1139679 92.14395142 C-0.11326828 88.74047771 -0.10547363 85.33705796 -0.09765625 81.93359375 C-0.09579224 79.58089732 -0.09436826 77.2282005 -0.09336853 74.87550354 C-0.08954199 68.66943295 -0.07971055 62.4633856 -0.06866455 56.25732422 C-0.05845334 49.93001622 -0.05387154 43.60270448 -0.04882812 37.27539062 C-0.0380884 24.85025018 -0.02101036 12.42512702 0 0 Z " fill="#FFFFFF" transform="translate(323,246)"/>
<path d="M0 0 C5.72361781 5.20614004 8.98585998 13.24643752 9.75 20.8125 C9.81677855 22.22820519 9.86872891 23.64523459 9.875 25.0625 C7.38745214 26.30627393 5.64844699 26.19556235 2.875 26.1875 C1.988125 26.19007813 1.10125 26.19265625 0.1875 26.1953125 C-2.125 26.0625 -2.125 26.0625 -4.125 25.0625 C-4.6171875 23.171875 -4.6171875 23.171875 -5 20.8125 C-5.85853676 16.62630138 -6.94064114 14.0648955 -10.125 11.0625 C-14.09583957 8.80878025 -17.61556654 8.66693566 -22.125 9.0625 C-25.82052303 10.36680225 -27.80181821 11.72230864 -30.5 14.5625 C-32.71517168 19.33363899 -33.14991373 23.88517844 -32.125 29.0625 C-29.57172445 33.10078409 -27.23985014 34.82826198 -22.8125 36.5 C-21.75933594 36.91378906 -20.70617187 37.32757813 -19.62109375 37.75390625 C-17.8263464 38.42568319 -16.03126647 39.09669256 -14.23095703 39.75341797 C-4.50519519 43.30936151 4.23039302 46.60473359 9.3125 56.25 C13.69820715 65.90642246 12.55259796 76.18690599 9.19921875 86.01171875 C5.82163257 93.79311936 0.60919909 99.51579598 -7.125 103.0625 C-14.93905527 106.06183434 -23.98512233 106.26495358 -31.828125 103.2890625 C-40.18981127 98.82380827 -45.96602645 91.93701174 -49.125 83.0625 C-50.20734607 78.63036134 -50.20194923 74.60250441 -50.125 70.0625 C-47.97923363 70.03564062 -45.83337355 70.01616912 -43.6875 70 C-42.49253906 69.98839844 -41.29757813 69.97679687 -40.06640625 69.96484375 C-37.125 70.0625 -37.125 70.0625 -36.125 71.0625 C-35.88025023 72.60176964 -35.65432911 74.14404977 -35.4375 75.6875 C-34.4236784 81.04078528 -32.31974675 84.57221453 -28.125 88.0625 C-22.05736578 90.08504474 -15.34193984 90.1126294 -9.5625 87.375 C-4.70736728 82.76884844 -3.34495186 78.74591266 -2.8125 72.25 C-2.92004043 67.79120841 -4.11708712 64.38455522 -7.125 61.0625 C-12.40061614 56.87766731 -18.45302617 54.45941767 -24.6875 52.0625 C-34.28805659 48.35817839 -41.55347628 44.63412779 -46.125 35.0625 C-48.77087702 27.12486895 -48.08453438 16.81159706 -44.51171875 9.27734375 C-34.59105917 -6.56776606 -15.62318943 -9.68637745 0 0 Z " fill="#FFFFFF" transform="translate(239.125,248.9375)"/>
<path d="M0 0 C1.39456452 0.00667256 2.78911118 0.01863093 4.18359375 0.03515625 C5.2499707 0.04192383 5.2499707 0.04192383 6.33789062 0.04882812 C8.09899388 0.06064761 9.86005411 0.07858362 11.62109375 0.09765625 C20.7202804 23.36163255 29.78035283 46.64022436 38.77124023 69.94628906 C39.10630081 70.81434174 39.44136139 71.68239441 39.78657532 72.57675171 C40.44169394 74.27567638 41.09560472 75.97506738 41.74821472 77.67495728 C43.36833976 81.88842606 45.01415151 86.0889076 46.70654297 90.27392578 C47.03827011 91.10207291 47.36999725 91.93022003 47.71177673 92.78346252 C48.34145184 94.3524934 48.97857358 95.91856322 49.62428284 97.48106384 C51.73312634 102.76155847 51.73312634 102.76155847 50.62109375 106.09765625 C46.33109375 106.09765625 42.04109375 106.09765625 37.62109375 106.09765625 C34.75892702 99.78758074 32.14144583 93.43268453 29.6796875 86.95703125 C29.31507919 86.0038501 28.95047089 85.05066895 28.57481384 84.06860352 C27.40021197 80.99591299 26.22918649 77.92187613 25.05859375 74.84765625 C24.251586 72.73205013 23.44445648 70.61649046 22.63720703 68.50097656 C21.03828575 64.30972567 19.44090143 60.11789282 17.84423828 55.92578125 C16.17949625 51.55751527 14.50701412 47.19231956 12.8273468 42.82977295 C11.7826981 40.11593468 10.74167028 37.40071764 9.70144653 34.68518066 C9.01040541 32.88493976 8.31469944 31.08649173 7.61889648 29.28808594 C7.21485596 28.23008789 6.81081543 27.17208984 6.39453125 26.08203125 C6.04825684 25.18194336 5.70198242 24.28185547 5.34521484 23.35449219 C4.62109375 21.09765625 4.62109375 21.09765625 4.62109375 18.09765625 C3.96109375 18.09765625 3.30109375 18.09765625 2.62109375 18.09765625 C2.52538086 18.89792236 2.42966797 19.69818848 2.33105469 20.52270508 C1.44174393 25.00075784 -0.09621215 29.04687955 -1.73828125 33.296875 C-2.07933395 34.19345825 -2.42038666 35.0900415 -2.77177429 36.01379395 C-3.88574773 38.93954395 -5.00724839 41.86234466 -6.12890625 44.78515625 C-7.67936814 48.8467866 -9.22638057 52.90972797 -10.7734375 56.97265625 C-11.16213516 57.9918364 -11.55083282 59.01101654 -11.9513092 60.06108093 C-14.44972806 66.62153917 -16.9079143 73.19546467 -19.328125 79.78515625 C-19.62882904 80.60264847 -19.92953308 81.42014069 -20.23934937 82.2624054 C-21.37751207 85.35881338 -22.51486033 88.45545896 -23.64172363 91.55599976 C-24.40235634 93.64843551 -25.16935342 95.73843853 -25.9375 97.828125 C-26.36345459 98.99754639 -26.78940918 100.16696777 -27.22827148 101.37182617 C-28.37890625 104.09765625 -28.37890625 104.09765625 -30.37890625 106.09765625 C-33.41796875 106.29296875 -33.41796875 106.29296875 -37.00390625 106.22265625 C-38.19242188 106.20460938 -39.3809375 106.1865625 -40.60546875 106.16796875 C-41.52070313 106.14476562 -42.4359375 106.1215625 -43.37890625 106.09765625 C-42.80581541 100.08375253 -41.01828574 95.01198173 -38.79296875 89.41796875 C-38.42379333 88.47206879 -38.05461792 87.52616882 -37.67425537 86.55160522 C-36.45775682 83.43918241 -35.23088968 80.3309589 -34.00390625 77.22265625 C-33.15500842 75.05693574 -32.30687494 72.8909155 -31.45947266 70.72460938 C-30.13609399 67.34240412 -28.81193327 63.96051979 -27.48483276 60.57977295 C-24.27230944 52.3952285 -21.09058323 44.19920025 -17.92578125 35.99609375 C-17.48885956 34.86446808 -17.05193787 33.73284241 -16.60177612 32.56692505 C-14.89717301 28.15186291 -13.19268278 23.73676111 -11.49151611 19.32037354 C-10.31842296 16.27642562 -9.14202341 13.23377567 -7.96484375 10.19140625 C-7.61468201 9.28023041 -7.26452026 8.36905457 -6.90374756 7.43026733 C-6.5840802 6.60572052 -6.26441284 5.78117371 -5.93505859 4.93164062 C-5.65705414 4.21117554 -5.37904968 3.49071045 -5.09262085 2.74841309 C-3.79266543 -0.25826534 -3.60531611 0.10419989 0 0 Z " fill="#FFFFFF" transform="translate(243.37890625,364.90234375)"/>
<path d="M0 0 C4.95 0 9.9 0 15 0 C17.74929962 5.32655809 20.13064044 10.63273335 22.22265625 16.24609375 C22.52086273 17.03466263 22.81906921 17.82323151 23.12631226 18.63569641 C24.10872413 21.23492427 25.08557713 23.8362047 26.0625 26.4375 C27.47897609 30.19246573 28.8990204 33.94607353 30.3203125 37.69921875 C30.69169846 38.68056793 31.06308441 39.66191711 31.44572449 40.67300415 C34.33322787 48.28529419 37.27739334 55.87454676 40.2421875 63.45703125 C40.89328743 65.12450661 40.89328743 65.12450661 41.55754089 66.82566833 C43.27337239 71.21882028 44.98952355 75.61180149 46.71682739 80.00045776 C47.91909852 83.05565916 49.11440955 86.11350548 50.30859375 89.171875 C50.6682724 90.07948074 51.02795105 90.98708649 51.39852905 91.92219543 C53.08296732 96.25287577 54.60514125 100.32509614 55 105 C53.18960804 106.81039196 50.56909565 106.29880517 48.125 106.375 C47.05507812 106.42398438 45.98515625 106.47296875 44.8828125 106.5234375 C42 106 42 106 40.5715332 104.11108398 C38.37270511 99.75817635 36.68244417 95.26289352 34.97265625 90.69921875 C34.58712585 89.68172043 34.20159546 88.66422211 33.80438232 87.6158905 C32.55243605 84.30816406 31.30737893 80.99789199 30.0625 77.6875 C29.20635985 75.42124066 28.34983173 73.15512784 27.49291992 70.88916016 C24.98857569 64.26195677 22.49326149 57.63137937 20 51 C19.31187249 49.17105234 18.623723 47.34211296 17.93554688 45.51318359 C14.61278161 36.67952697 11.29952575 27.84236654 8 19 C5.92048648 22.11927028 4.78069603 24.960487 3.46557617 28.46826172 C3.09679604 29.44709068 3.09679604 29.44709068 2.7205658 30.44569397 C1.90777583 32.60569486 1.10038681 34.76767345 0.29296875 36.9296875 C-0.27477406 38.44138403 -0.84286943 39.95294818 -1.41130066 41.46438599 C-2.91036676 45.45301978 -4.40494137 49.44332164 -5.89849854 53.434021 C-7.69707555 58.23739264 -9.50065761 63.03888643 -11.3037138 67.84057808 C-12.71075543 71.58785574 -14.11702353 75.33541652 -15.52070618 79.08395386 C-16.7718433 82.42473352 -18.02823466 85.76350198 -19.28686905 89.10146332 C-20.00341902 91.00910231 -20.71235703 92.91945678 -21.42074585 94.83013916 C-22.08198959 96.59282135 -22.08198959 96.59282135 -22.7565918 98.39111328 C-23.14235886 99.4277713 -23.52812592 100.46442932 -23.92558289 101.53250122 C-25 104 -25 104 -27 106 C-29.8203125 106.1953125 -29.8203125 106.1953125 -33.125 106.125 C-34.22070312 106.10695313 -35.31640625 106.08890625 -36.4453125 106.0703125 C-37.28835937 106.04710937 -38.13140625 106.02390625 -39 106 C-40.03642763 102.84708064 -39.99217011 101.16897364 -38.76269531 98.10083008 C-38.46288254 97.33655701 -38.16306976 96.57228394 -37.85417175 95.78485107 C-37.51557632 94.95479553 -37.1769809 94.12473999 -36.828125 93.26953125 C-36.47845169 92.38638245 -36.12877838 91.50323364 -35.76850891 90.59332275 C-34.60566893 87.6622949 -33.42770917 84.73758127 -32.25 81.8125 C-31.43745909 79.7712537 -30.62619912 77.72949709 -29.81616211 75.68725586 C-28.54269054 72.47677904 -27.26847052 69.26662445 -25.99034119 66.05799866 C-21.09406054 53.75985976 -16.32967938 41.41111265 -11.5625 29.0625 C-9.98210197 24.96941831 -8.39990222 20.8770403 -6.81640625 16.78515625 C-6.47337967 15.895401 -6.13035309 15.00564575 -5.77693176 14.08892822 C-3.9422122 9.34914776 -2.0342135 4.65778594 0 0 Z " fill="#FFFFFF" transform="translate(134,246)"/>
<path d="M0 0 C1.39456452 0.00667256 2.78911118 0.01863093 4.18359375 0.03515625 C5.2499707 0.04192383 5.2499707 0.04192383 6.33789062 0.04882812 C8.09899388 0.06064761 9.86005411 0.07858362 11.62109375 0.09765625 C20.46283018 22.6762815 29.26063521 45.27203896 38.01092529 67.88626099 C38.99883271 70.43910977 39.9881996 72.99138547 40.9788208 75.54318237 C42.38134439 79.15632949 43.77878708 82.7714299 45.17578125 86.38671875 C45.5959552 87.46741135 46.01612915 88.54810394 46.44903564 89.6615448 C48.41567551 94.76355699 50.24035458 99.80528953 51.62109375 105.09765625 C50.62109375 106.09765625 50.62109375 106.09765625 47.6796875 106.1953125 C46.48472656 106.18371094 45.28976562 106.17210937 44.05859375 106.16015625 C42.26228516 106.14662109 42.26228516 106.14662109 40.4296875 106.1328125 C39.03943359 106.11541016 39.03943359 106.11541016 37.62109375 106.09765625 C34.01230947 98.25284661 30.92936785 90.23059858 27.87109375 82.16015625 C27.31439133 80.69516181 26.75750192 79.23023842 26.20043945 77.76538086 C25.30876884 75.42058961 24.41730561 73.07572167 23.52680969 70.73048401 C21.47567489 65.33178812 19.4095426 59.93902421 17.33486938 54.54933167 C15.85288915 50.69855317 14.37481455 46.84628106 12.89709473 42.99386597 C12.17227592 41.10693509 11.44579813 39.22064061 10.71765137 37.33499146 C9.69517666 34.68600941 8.67894153 32.03471213 7.6640625 29.3828125 C7.355327 28.58746094 7.04659149 27.79210937 6.72850037 26.97265625 C5.55190192 23.88339212 4.62109375 21.43303882 4.62109375 18.09765625 C3.96109375 18.09765625 3.30109375 18.09765625 2.62109375 18.09765625 C2.49323486 18.98316162 2.36537598 19.86866699 2.23364258 20.78100586 C1.6782747 23.78804957 0.92252054 26.3232058 -0.1796875 29.1640625 C-0.57051514 30.18218018 -0.96134277 31.20029785 -1.36401367 32.24926758 C-1.80205322 33.37486084 -2.24009277 34.5004541 -2.69140625 35.66015625 C-3.40839192 37.52567346 -4.12530658 39.39121832 -4.84095764 41.25724792 C-5.38458369 42.67464098 -5.92883174 44.09179559 -6.47361755 45.50874329 C-10.5931276 56.23478802 -14.631881 66.99156646 -18.68417358 77.74313354 C-20.49979886 82.55993414 -22.316875 87.37618685 -24.13394165 92.19244385 C-25.88257025 96.82739885 -27.63074524 101.46252487 -29.37890625 106.09765625 C-33.99890625 106.09765625 -38.61890625 106.09765625 -43.37890625 106.09765625 C-42.80581541 100.08375253 -41.01828574 95.01198173 -38.79296875 89.41796875 C-38.42379333 88.47206879 -38.05461792 87.52616882 -37.67425537 86.55160522 C-36.45775682 83.43918241 -35.23088968 80.3309589 -34.00390625 77.22265625 C-33.15500842 75.05693574 -32.30687494 72.8909155 -31.45947266 70.72460938 C-30.13609399 67.34240412 -28.81193327 63.96051979 -27.48483276 60.57977295 C-24.27230944 52.3952285 -21.09058323 44.19920025 -17.92578125 35.99609375 C-17.48885956 34.86446808 -17.05193787 33.73284241 -16.60177612 32.56692505 C-14.89717301 28.15186291 -13.19268278 23.73676111 -11.49151611 19.32037354 C-10.31842296 16.27642562 -9.14202341 13.23377567 -7.96484375 10.19140625 C-7.61468201 9.28023041 -7.26452026 8.36905457 -6.90374756 7.43026733 C-6.5840802 6.60572052 -6.26441284 5.78117371 -5.93505859 4.93164062 C-5.65705414 4.21117554 -5.37904968 3.49071045 -5.09262085 2.74841309 C-3.79266543 -0.25826534 -3.60531611 0.10419989 0 0 Z " fill="#FFFFFF" transform="translate(453.37890625,364.90234375)"/>
<path d="M0 0 C21.45 0 42.9 0 65 0 C65 4.29 65 8.58 65 13 C57.54047961 16.72976019 48.33999734 14 40 14 C40 44.03 40 74.06 40 105 C37.37670316 106.31164842 35.36301375 106.13262846 32.4375 106.125 C31.44621094 106.12757813 30.45492188 106.13015625 29.43359375 106.1328125 C27 106 27 106 26 105 C25.90479094 102.16959328 25.87446369 99.36365007 25.88647461 96.53295898 C25.88632858 95.64523804 25.88618256 94.75751709 25.8860321 93.84289551 C25.88673157 90.89393716 25.89452552 87.94504113 25.90234375 84.99609375 C25.90420781 82.95728083 25.90563177 80.91846746 25.90663147 78.87965393 C25.91045759 73.50215426 25.92028868 68.12468142 25.93133545 62.74719238 C25.94154755 57.26440799 25.94612866 51.78161928 25.95117188 46.29882812 C25.96191086 35.53254027 25.97898841 24.76627236 26 14 C25.28344238 14.00523682 24.56688477 14.01047363 23.82861328 14.01586914 C20.59408438 14.03660667 17.35956944 14.04964984 14.125 14.0625 C12.43310547 14.07506836 12.43310547 14.07506836 10.70703125 14.08789062 C9.63066406 14.09111328 8.55429687 14.09433594 7.4453125 14.09765625 C6.45031738 14.10289307 5.45532227 14.10812988 4.43017578 14.11352539 C2 14 2 14 0 13 C0 8.71 0 4.42 0 0 Z " fill="#FFFFFF" transform="translate(250,246)"/>
<path d="M0 0 C4.29 0 8.58 0 13 0 C13 34.98 13 69.96 13 106 C8.71 106 4.42 106 0 106 C-1.53425806 104.46574194 -1.12592923 103.0768638 -1.12698364 100.93823242 C-1.12980347 100.0632309 -1.13262329 99.18822937 -1.13552856 98.28671265 C-1.13350433 97.31940216 -1.1314801 96.35209167 -1.12939453 95.35546875 C-1.13114685 94.34255768 -1.13289917 93.32964661 -1.13470459 92.28604126 C-1.13912522 88.91984369 -1.13618437 85.55369816 -1.1328125 82.1875 C-1.13348548 79.85961904 -1.13445545 77.53173814 -1.13571167 75.20385742 C-1.13718893 70.31786431 -1.13503318 65.43188944 -1.13037109 60.54589844 C-1.1246738 54.26727344 -1.12795265 47.98869118 -1.13394356 41.71006775 C-1.13754841 36.90099767 -1.13641093 32.09193781 -1.13381577 27.28286743 C-1.13314629 24.96709183 -1.13397564 22.65131531 -1.13629532 20.33554077 C-1.13882061 17.10517909 -1.13498299 13.87488767 -1.12939453 10.64453125 C-1.13141876 9.67722076 -1.13344299 8.70991028 -1.13552856 7.71328735 C-1.13270874 6.83828583 -1.12988892 5.9632843 -1.12698364 5.06176758 C-1.12660662 4.29705643 -1.12622959 3.53234528 -1.12584114 2.74446106 C-1 1 -1 1 0 0 Z " fill="#FFFFFF" transform="translate(391,365)"/>
<path d="M0 0 C4.004793 2.0023965 6.6587028 4.17998877 9 8 C10.35682449 12.07047347 10.52472254 15.74391717 10 20 C7.29820537 25.3035228 3.70503105 29.09832298 -2 31 C-7.25765945 31.39680449 -10.56102842 30.89498146 -15 28 C-18.93441085 24.02316963 -21.15056074 20.8752584 -21.3125 15.25 C-21.24913295 10.36369653 -20.35632281 7.70961995 -17 4 C-11.89289974 -0.73340999 -6.64672924 -0.98909661 0 0 Z " fill="#FFFFFF" transform="translate(563,7)"/>
<path d="M0 0 C5.50227764 -0.41656417 5.50227764 -0.41656417 7.69189453 1.41601562 C8.12614746 2.07279297 8.56040039 2.72957031 9.0078125 3.40625 C9.5018457 4.13714844 9.99587891 4.86804688 10.50488281 5.62109375 C11.24496582 6.79865234 11.24496582 6.79865234 12 8 C12.4959668 8.77472656 12.99193359 9.54945313 13.50292969 10.34765625 C14.99003736 12.71532669 16.43747004 15.101888 17.875 17.5 C19.56625 20.305 21.2575 23.11 23 26 C23.33 17.42 23.66 8.84 24 0 C25.65 0 27.3 0 29 0 C30.78830448 1.78830448 30.12848711 4.19581152 30.13894653 6.57641602 C30.1369223 7.35557373 30.13489807 8.13473145 30.1328125 8.9375 C30.13424759 10.13040649 30.13424759 10.13040649 30.13571167 11.34741211 C30.13639343 13.0320646 30.13453943 14.71671971 30.13037109 16.40136719 C30.12502275 18.98899197 30.13031619 21.57644316 30.13671875 24.1640625 C30.13605797 25.79687539 30.1347768 27.42968816 30.1328125 29.0625 C30.13483673 29.84165771 30.13686096 30.62081543 30.13894653 31.42358398 C30.11495105 36.88504895 30.11495105 36.88504895 29 38 C26.62158203 38.27539062 26.62158203 38.27539062 24 38 C22.40576172 36.58398438 22.40576172 36.58398438 21.0546875 34.59375 C20.55163086 33.86285156 20.04857422 33.13195312 19.53027344 32.37890625 C17.0039251 28.45153896 14.5259981 24.50538598 12.125 20.5 C10.43375 17.695 8.7425 14.89 7 12 C6.67 20.58 6.34 29.16 6 38 C4.35 38 2.7 38 1 38 C0 37 0 37 -0.11352539 33.48999023 C-0.11336626 31.92951578 -0.10767142 30.36903607 -0.09765625 28.80859375 C-0.0962413 27.98875504 -0.09482635 27.16891632 -0.09336853 26.32423401 C-0.08775289 23.69528618 -0.07519779 21.06642227 -0.0625 18.4375 C-0.05748701 16.65950643 -0.05292376 14.88151154 -0.04882812 13.10351562 C-0.03777839 8.73564455 -0.02050331 4.36783652 0 0 Z " fill="#FFFFFF" transform="translate(430,202)"/>
<path d="M0 0 C6 0 6 0 7.8269043 1.7565918 C8.32101807 2.56265869 8.81513184 3.36872559 9.32421875 4.19921875 C9.87787109 5.07900391 10.43152344 5.95878906 11.00195312 6.86523438 C11.55818359 7.79658203 12.11441406 8.72792969 12.6875 9.6875 C13.25533203 10.59951172 13.82316406 11.51152344 14.40820312 12.45117188 C15.96131253 14.95471869 17.48687708 17.47213726 19 20 C19.99 21.65 20.98 23.3 22 25 C22.33 16.75 22.66 8.5 23 0 C24.98 0 26.96 0 29 0 C29 12.54 29 25.08 29 38 C23 38 23 38 21.234375 36.41015625 C20.74453125 35.63542969 20.2546875 34.86070312 19.75 34.0625 C19.17636719 33.16917969 18.60273438 32.27585938 18.01171875 31.35546875 C17.01591797 29.69451172 17.01591797 29.69451172 16 28 C15.36312256 26.93966553 15.36312256 26.93966553 14.71337891 25.85791016 C11.76299909 20.93018141 8.87982001 15.97064824 6 11 C6 19.91 6 28.82 6 38 C4.02 38 2.04 38 0 38 C0 25.46 0 12.92 0 0 Z " fill="#FFFFFF" transform="translate(204,202)"/>
<path d="M0 0 C6.74205294 0.01827115 12.55832911 0.03457748 17.7109375 4.9375 C22.96657015 10.8593396 23.27942772 14.88852667 23.22265625 22.8203125 C22.84518707 27.36028432 22.03036435 28.98530985 18.9375 32.25 C18.07125 33.36375 18.07125 33.36375 17.1875 34.5 C10.52730302 39.68015321 0.9232324 38.71592469 -7.0625 38.25 C-8.85080448 36.46169552 -8.19098711 34.05418848 -8.20144653 31.67358398 C-8.1994223 30.89442627 -8.19739807 30.11526855 -8.1953125 29.3125 C-8.19626923 28.517229 -8.19722595 27.72195801 -8.19821167 26.90258789 C-8.19889343 25.2179354 -8.19703943 23.53328029 -8.19287109 21.84863281 C-8.18752275 19.26100803 -8.19281619 16.67355684 -8.19921875 14.0859375 C-8.19855797 12.45312461 -8.1972768 10.82031184 -8.1953125 9.1875 C-8.19733673 8.40834229 -8.19936096 7.62918457 -8.20144653 6.82641602 C-8.16946384 -0.45296841 -7.10187695 0.08396308 0 0 Z M-2.0625 6.25 C-2.0625 14.83 -2.0625 23.41 -2.0625 32.25 C8.03545912 32.89191116 8.03545912 32.89191116 14.9375 28.25 C17.9143542 23.78471871 17.42883346 19.48577218 16.9375 14.25 C15.67258874 11.05443471 14.44994916 9.71440705 11.9375 7.4375 C7.77060077 5.57524451 7.77060077 5.57524451 -2.0625 6.25 Z " fill="#FFFFFF" transform="translate(252.0625,201.75)"/>
<path d="M0 0 C4.82297185 3.50761589 9.7612807 7.88682089 10.75 14 C11.28096138 20.37153655 10.41863859 24.69580736 6.75 30 C3.12835338 34.12262367 -0.85151847 36.10025308 -6.25 37 C-12.63703239 37.08123412 -17.26901789 36.26941324 -22.25 32 C-27.00561078 26.84808833 -28.75517072 22.28941767 -28.55859375 15.33984375 C-27.92770171 10.55624461 -26.10402265 6.6981162 -22.53125 3.42578125 C-15.72167269 -1.60926638 -8.1246781 -2.49990095 0 0 Z M-19.5625 9.125 C-21.86390899 13.04591901 -22.43382162 16.47638977 -22.25 21 C-21.03178704 25.03533044 -19.47520779 27.12863821 -16 29.375 C-12.33042283 31.22527203 -9.36454718 31.53336723 -5.25 31 C-1.14344085 29.18547386 1.3823122 26.80521254 3.75 23 C5.0104198 18.85004638 5.04900953 15.86380531 3.625 11.75 C1.20311067 8.19789565 -0.91175741 5.70533764 -5.140625 4.4296875 C-11.23793449 3.33589534 -14.98376036 4.91750952 -19.5625 9.125 Z " fill="#FFFFFF" transform="translate(410.25,203)"/>
<path d="M0 0 C1.2065625 0.0309375 1.2065625 0.0309375 2.4375 0.0625 C5.70946337 7.25781124 8.72992642 14.54554804 11.6875 21.875 C12.14640625 22.99326172 12.6053125 24.11152344 13.078125 25.26367188 C13.7278125 26.87532227 13.7278125 26.87532227 14.390625 28.51953125 C14.78411133 29.48866455 15.17759766 30.45779785 15.58300781 31.45629883 C16.4375 34.0625 16.4375 34.0625 16.4375 38.0625 C14.125 38.375 14.125 38.375 11.4375 38.0625 C9.0130581 34.91970495 7.92926473 31.79191182 6.4375 28.0625 C-0.4925 27.5675 -0.4925 27.5675 -7.5625 27.0625 C-8.01625 28.50625 -8.47 29.95 -8.9375 31.4375 C-9.87010631 34.40488372 -10.33424356 35.83424356 -12.5625 38.0625 C-15.1875 38.1875 -15.1875 38.1875 -17.5625 38.0625 C-16.9026105 34.20369652 -15.78845401 30.74836382 -14.3828125 27.09765625 C-13.94839844 25.96779297 -13.51398438 24.83792969 -13.06640625 23.67382812 C-12.61136719 22.50271484 -12.15632813 21.33160156 -11.6875 20.125 C-11.01654297 18.37413086 -11.01654297 18.37413086 -10.33203125 16.58789062 C-3.96104108 0.09661076 -3.96104108 0.09661076 0 0 Z M-0.5625 9.0625 C-3.0375 15.0025 -3.0375 15.0025 -5.5625 21.0625 C-2.2625 21.0625 1.0375 21.0625 4.4375 21.0625 C3.1175 17.1025 1.7975 13.1425 0.4375 9.0625 C0.1075 9.0625 -0.2225 9.0625 -0.5625 9.0625 Z " fill="#FFFFFF" transform="translate(297.5625,201.9375)"/>
<path d="M0 0 C4.30982842 2.21594664 7.08720174 5.43807857 9.85546875 9.296875 C9.85546875 9.956875 9.85546875 10.616875 9.85546875 11.296875 C7.54546875 11.296875 5.23546875 11.296875 2.85546875 11.296875 C2.66984375 10.678125 2.48421875 10.059375 2.29296875 9.421875 C0.92894161 6.98381134 0.92894161 6.98381134 -2.33203125 5.984375 C-6.94422821 5.15266735 -10.75839957 4.81157506 -14.8828125 7.37890625 C-17.60215957 9.52712554 -19.03768089 10.97632391 -20.14453125 14.296875 C-20.53894392 19.52284288 -20.05002252 22.88854342 -17.14453125 27.296875 C-13.72846742 30.22492971 -10.63903859 30.81728434 -6.14453125 30.6640625 C-2.50962227 29.99671593 0.27975572 27.87258803 2.85546875 25.296875 C4.85505239 25.25606717 6.85592129 25.25433144 8.85546875 25.296875 C8.37720217 29.60127425 6.09884718 31.60556098 2.85546875 34.296875 C-2.9877951 37.68596803 -8.65111005 37.89021869 -15.14453125 36.296875 C-19.99676167 33.82498403 -22.9833991 30.63214196 -26.14453125 26.296875 C-27.95898988 20.64678863 -28.02731588 14.60423088 -25.70703125 9.109375 C-20.28958754 -0.30980414 -10.17107411 -3.3347784 0 0 Z " fill="#FFFFFF" transform="translate(347.14453125,202.703125)"/>
<path d="M0 0 C1.66611905 -0.042721 3.33382885 -0.04063832 5 0 C6.82210567 1.82210567 6.1736685 4.70130873 6.2109375 7.15234375 C6.23929688 8.40337891 6.26765625 9.65441406 6.296875 10.94335938 C6.34887919 13.60207353 6.39317391 16.26094987 6.4296875 18.91992188 C6.460625 20.17224609 6.4915625 21.42457031 6.5234375 22.71484375 C6.54325684 23.87105225 6.56307617 25.02726074 6.58349609 26.21850586 C6.78966553 27.59534546 6.78966553 27.59534546 7 29 C10.22373677 31.14915785 11.26703674 31.38286803 15 31 C18.41641336 27.58358664 18.14955049 23.81258616 18.31640625 19.140625 C18.35830078 18.02558594 18.40019531 16.91054687 18.44335938 15.76171875 C18.48267578 14.60285156 18.52199219 13.44398438 18.5625 12.25 C18.60568359 11.07566406 18.64886719 9.90132812 18.69335938 8.69140625 C18.79934794 5.79438549 18.90141638 2.89728065 19 0 C20.98 0 22.96 0 25 0 C25.08755672 4.35403865 25.14057969 8.70784877 25.1875 13.0625 C25.21263672 14.29162109 25.23777344 15.52074219 25.26367188 16.78710938 C25.37255816 30.25271316 25.37255816 30.25271316 20.3125 35.875 C15.30491244 38.31112368 11.39210187 38.41078416 6.1875 36.875 C2.64208385 34.78946109 1.71548595 33.6719591 0 30 C-0.34057617 26.6784668 -0.34057617 26.6784668 -0.29296875 22.94921875 C-0.28872391 22.29041214 -0.28447906 21.63160553 -0.28010559 20.95283508 C-0.26341196 18.86396115 -0.22578058 16.77607861 -0.1875 14.6875 C-0.17244097 13.26498797 -0.15875469 11.8424607 -0.14648438 10.41992188 C-0.11354003 6.94629649 -0.06182408 3.47324513 0 0 Z " fill="#FFFFFF" transform="translate(168,202)"/>
<path d="M0 0 C6.6 0 13.2 0 20 0 C20 1.98 20 3.96 20 6 C15.38 6 10.76 6 6 6 C6 9.3 6 12.6 6 16 C10.62 16 15.24 16 20 16 C20 17.65 20 19.3 20 21 C15.38 21 10.76 21 6 21 C6 26.61 6 32.22 6 38 C4.02 38 2.04 38 0 38 C0 25.46 0 12.92 0 0 Z " fill="#FFFFFF" transform="translate(137,202)"/>
<path d="M0 0 C2.5 0.125 2.5 0.125 3.5 1.125 C3.60095564 3.77956193 3.63970998 6.40755176 3.6328125 9.0625 C3.63376923 9.857771 3.63472595 10.65304199 3.63571167 11.47241211 C3.63639343 13.1570646 3.63453943 14.84171971 3.63037109 16.52636719 C3.62502275 19.11399197 3.63031619 21.70144316 3.63671875 24.2890625 C3.63605797 25.92187539 3.6347768 27.55468816 3.6328125 29.1875 C3.63483673 29.96665771 3.63686096 30.74581543 3.63894653 31.54858398 C3.61495105 37.01004895 3.61495105 37.01004895 2.5 38.125 C0 38.25 0 38.25 -2.5 38.125 C-4.28830448 36.33669552 -3.62848711 33.92918848 -3.63894653 31.54858398 C-3.6369223 30.76942627 -3.63489807 29.99026855 -3.6328125 29.1875 C-3.63376923 28.392229 -3.63472595 27.59695801 -3.63571167 26.77758789 C-3.63639343 25.0929354 -3.63453943 23.40828029 -3.63037109 21.72363281 C-3.62502275 19.13600803 -3.63031619 16.54855684 -3.63671875 13.9609375 C-3.63605797 12.32812461 -3.6347768 10.69531184 -3.6328125 9.0625 C-3.63483673 8.28334229 -3.63686096 7.50418457 -3.63894653 6.70141602 C-3.61029631 0.18051482 -3.61029631 0.18051482 0 0 Z " fill="#FFFFFF" transform="translate(369.5,201.875)"/>
<path d="M0 0 C-1.74399796 3.96363173 -3.97489455 7.88036 -7 11 C-9.8125 11.4375 -9.8125 11.4375 -12 11 C-10.66503776 7.40587089 -9.30872383 4.07829844 -7 1 C-4.53160607 0.21733851 -2.57174634 0 0 0 Z " fill="#FFFFFF" transform="translate(409,190)"/>
</svg>
